<?xml version="1.0" standalone="no"?>
<svg xmlns="http://www.w3.org/2000/svg" viewBox="0 0 1440 320">
    <path d="M 0,400 C 0,400 0,133 0,133 C 151.86666666666667,108.06666666666666 303.73333333333335,83.13333333333334 471,92 C 638.2666666666667,100.86666666666666 820.9333333333334,143.53333333333333 985,156 C 1149.0666666666666,168.46666666666667 1294.5333333333333,150.73333333333335 1440,133 C 1440,133 1440,400 1440,400 Z" fill="#f0f0ef88"></path>
    <path d="M 0,400 C 0,400 0,266 0,266 C 191.19999999999993,255.2 382.39999999999986,244.4 557,242 C 731.6000000000001,239.6 889.6000000000001,245.60000000000002 1034,251 C 1178.3999999999999,256.4 1309.1999999999998,261.2 1440,266 C 1440,266 1440,400 1440,400 Z" fill="#f0f0efff"></path>
</svg>